<svg xmlns="http://www.w3.org/2000/svg" viewBox="0 0 74.6 64.23"><title>Asset 1</title><g id="Layer_2" data-name="Layer 2"><g id="Layer_1-2" data-name="Layer 1"><path d="M74.6,48.8a6.35,6.35,0,0,1-2.1,4.9c-2.1,2-6.4,3.2-11.2,3.6a19.94,19.94,0,0,0,.2-2.7A40.77,40.77,0,0,0,55,33a28.08,28.08,0,0,0-6-6.7,14.35,14.35,0,0,1,7.6-2.7C64.1,23.4,74.6,33.1,74.6,48.8Z"/><path d="M66.2,9.5A9.52,9.52,0,0,1,64.4,15c-.4.4-.6.7-.9,1a9.44,9.44,0,0,1-6.8,2.9,9.14,9.14,0,0,1-5.6-1.8A17.89,17.89,0,0,0,52.3,11,16.58,16.58,0,0,0,50,2.8,9.35,9.35,0,0,1,56.7,0,9.5,9.5,0,0,1,66.2,9.5Z"/><path d="M56.9,54.6a6.53,6.53,0,0,1-.6,2.9,19.4,19.4,0,0,1-1.5,2.4,11.76,11.76,0,0,1-3.2,2c-7.3,3.1-21.5,3.1-28.9,0a10.77,10.77,0,0,1-3.3-2,6.6,6.6,0,0,1-1.7-2.4,6.84,6.84,0,0,1-.6-2.9c0-12.2,5.7-21.2,12-25.3a15.43,15.43,0,0,1,4-2.1,10.21,10.21,0,0,1,3.8-.7,12.65,12.65,0,0,1,4.5,1,13.87,13.87,0,0,1,3.9,2.2C51.5,34.1,56.9,42.8,56.9,54.6Zm-9.1-7.8a5.81,5.81,0,0,0-.1-6.1A6.55,6.55,0,0,0,42,37.6c-1.8,0-3.6,1.6-4.8,2.8-1.2-1.2-2.9-2.7-4.7-2.7a6.65,6.65,0,0,0-5.6,3,6.74,6.74,0,0,0-.8,3,7.94,7.94,0,0,0,.8,3.2,15.89,15.89,0,0,0,3.7,4.5c1.5,1.5,5.5,4.7,6.2,5.4l.5.4.5-.4c.9-.8,4.9-4.1,6.2-5.5A16.54,16.54,0,0,0,47.8,46.8Z"/><path d="M36.8.3A10.4,10.4,0,1,1,26.4,10.7,10.59,10.59,0,0,1,36.8.3Z"/><path d="M24.1,2.4a15,15,0,0,0-2.7,8.7,18.47,18.47,0,0,0,1.3,6.6,8.14,8.14,0,0,1-4.9,1.5,9.67,9.67,0,0,1-6.9-2.9,4.36,4.36,0,0,0-.9-1.1A8.86,8.86,0,0,1,8.2,9.7,9.5,9.5,0,0,1,17.7.2,8.78,8.78,0,0,1,24.1,2.4Z"/><path d="M17.9,23.3A13,13,0,0,1,25,25.8a29.9,29.9,0,0,0-6.5,7.1A41.67,41.67,0,0,0,12,54.5a8,8,0,0,0,.4,2.7C8,56.7,4.1,55.5,2.1,53.6A6,6,0,0,1,0,48.7C0,33.1,10.4,23.4,17.9,23.3Z"/></g></g></svg>