<svg xmlns="http://www.w3.org/2000/svg" viewBox="0 0 77.3 90.1"><defs><style>.cls-1{fill:#010101;}</style></defs><title>Asset 1</title><g id="Layer_2" data-name="Layer 2"><g id="Layer_1-2" data-name="Layer 1"><path class="cls-1" d="M72.3,40.9h-16v-12l1.3.6a1.27,1.27,0,0,0,.6.1,1.42,1.42,0,0,0,1.4-.9,1.66,1.66,0,0,0-.8-2.1L40.1,18.4V1.6A1.44,1.44,0,0,0,38.6,0H28.8a1.58,1.58,0,0,0-1.6,1.6V9.7a1.58,1.58,0,0,0,1.6,1.6h8.3v7.1L18.4,26.6a1.54,1.54,0,0,0-.8,2.1,1.51,1.51,0,0,0,1.4.9,1.27,1.27,0,0,0,.6-.1l1.3-.6v12H4.9A4.91,4.91,0,0,0,0,45.8V69a4.91,4.91,0,0,0,4.9,4.9H28.5a4,4,0,0,0,4-4V61.2A4.48,4.48,0,0,1,37,56.7h3.1a4.48,4.48,0,0,1,4.5,4.5v8.7a4,4,0,0,0,4,4H72.4A4.91,4.91,0,0,0,77.3,69V45.8A5.06,5.06,0,0,0,72.3,40.9ZM30.3,8.1v-5H37v5ZM74.1,69a1.79,1.79,0,0,1-1.8,1.8H48.6a.9.9,0,0,1-.9-.9V61.2a7.6,7.6,0,0,0-7.6-7.6H37a7.6,7.6,0,0,0-7.6,7.6v8.7a.9.9,0,0,1-.9.9H4.9A1.79,1.79,0,0,1,3.1,69V45.8A1.79,1.79,0,0,1,4.9,44H22.5a1.58,1.58,0,0,0,1.6-1.6V27.5l14.5-6.4,14.6,6.4v15a1.58,1.58,0,0,0,1.6,1.6H72.4a1.79,1.79,0,0,1,1.8,1.8V69Z"/><path class="cls-1" d="M8.8,48.2a1.58,1.58,0,0,0-1.6,1.6v4.6a1.6,1.6,0,0,0,3.2,0V49.8A1.58,1.58,0,0,0,8.8,48.2Z"/><path class="cls-1" d="M8.8,59.6a1.58,1.58,0,0,0-1.6,1.6v4.6a1.6,1.6,0,0,0,3.2,0V61.2A1.58,1.58,0,0,0,8.8,59.6Z"/><path class="cls-1" d="M15.6,48.2A1.58,1.58,0,0,0,14,49.8v4.6a1.6,1.6,0,0,0,3.2,0V49.8A1.58,1.58,0,0,0,15.6,48.2Z"/><path class="cls-1" d="M15.6,59.6A1.58,1.58,0,0,0,14,61.2v4.6a1.6,1.6,0,0,0,3.2,0V61.2A1.58,1.58,0,0,0,15.6,59.6Z"/><path class="cls-1" d="M22.4,48.2a1.58,1.58,0,0,0-1.6,1.6v4.6a1.6,1.6,0,1,0,3.2,0V49.8A1.58,1.58,0,0,0,22.4,48.2Z"/><path class="cls-1" d="M22.4,59.6a1.58,1.58,0,0,0-1.6,1.6v4.6a1.6,1.6,0,1,0,3.2,0V61.2A1.58,1.58,0,0,0,22.4,59.6Z"/><path class="cls-1" d="M54.8,48.2a1.58,1.58,0,0,0-1.6,1.6v4.6a1.6,1.6,0,1,0,3.2,0V49.8A1.58,1.58,0,0,0,54.8,48.2Z"/><path class="cls-1" d="M54.8,59.6a1.58,1.58,0,0,0-1.6,1.6v4.6a1.6,1.6,0,1,0,3.2,0V61.2A1.58,1.58,0,0,0,54.8,59.6Z"/><path class="cls-1" d="M61.6,48.2A1.58,1.58,0,0,0,60,49.8v4.6a1.6,1.6,0,1,0,3.2,0V49.8A1.58,1.58,0,0,0,61.6,48.2Z"/><path class="cls-1" d="M61.6,59.6A1.58,1.58,0,0,0,60,61.2v4.6a1.6,1.6,0,1,0,3.2,0V61.2A1.58,1.58,0,0,0,61.6,59.6Z"/><path class="cls-1" d="M68.4,48.2a1.58,1.58,0,0,0-1.6,1.6v4.6a1.6,1.6,0,1,0,3.2,0V49.8A1.58,1.58,0,0,0,68.4,48.2Z"/><path class="cls-1" d="M68.4,59.6a1.58,1.58,0,0,0-1.6,1.6v4.6a1.6,1.6,0,1,0,3.2,0V61.2A1.58,1.58,0,0,0,68.4,59.6Z"/><path class="cls-1" d="M31.2,29.9a1.58,1.58,0,0,0-1.6,1.6V36a1.6,1.6,0,0,0,3.2,0V31.4A1.56,1.56,0,0,0,31.2,29.9Z"/><path class="cls-1" d="M31.2,41.4A1.58,1.58,0,0,0,29.6,43v4.6a1.6,1.6,0,1,0,3.2,0V43A1.58,1.58,0,0,0,31.2,41.4Z"/><path class="cls-1" d="M38.5,29.9a1.58,1.58,0,0,0-1.6,1.6V36a1.6,1.6,0,0,0,3.2,0V31.4A1.56,1.56,0,0,0,38.5,29.9Z"/><path class="cls-1" d="M38.5,41.4A1.58,1.58,0,0,0,36.9,43v4.6a1.6,1.6,0,1,0,3.2,0V43A1.58,1.58,0,0,0,38.5,41.4Z"/><path class="cls-1" d="M45.8,29.9a1.58,1.58,0,0,0-1.6,1.6V36a1.6,1.6,0,0,0,3.2,0V31.4A1.56,1.56,0,0,0,45.8,29.9Z"/><path class="cls-1" d="M45.8,41.4A1.58,1.58,0,0,0,44.2,43v4.6a1.6,1.6,0,1,0,3.2,0V43A1.58,1.58,0,0,0,45.8,41.4Z"/><path class="cls-1" d="M71.5,79H5.5a1.6,1.6,0,1,0,0,3.2h66a1.6,1.6,0,0,0,0-3.2Z"/><path class="cls-1" d="M68.4,86.9H8.7a1.6,1.6,0,1,0,0,3.2H68.4a1.6,1.6,0,1,0,0-3.2Z"/></g></g></svg>