<svg xmlns="http://www.w3.org/2000/svg" xmlns:xlink="http://www.w3.org/1999/xlink" version="1.1" x="0px" y="0px" viewBox="0 0 100 100" enable-background="new 0 0 100 100" xml:space="preserve"><g><g><path d="M89.9,22c1.7,0,3.1,1.4,3.1,3.1V48H63.6v-3.8v-2h-2H38.4h-2v2V48H7V25.1c0-1.7,1.4-3.1,3.1-3.1H35h2h1h24h1h2H89.9 M62,10    H38c-1.7,0-3,1.3-3,3v7H10.1C7.3,20,5,22.3,5,25.1V50h33.4v-5.8h23.2V50H95V25.1c0-2.8-2.3-5.1-5.1-5.1H65v-7    C65,11.4,63.7,10,62,10L62,10z M38,20v-4.9c0-1.2,0.9-2.1,2.1-2.1h20c1,0,1.9,0.8,1.9,1.9V20H38L38,20z"></path></g><g><path d="M93,54v30.9c0,1.7-1.4,3.1-3.1,3.1H10.1C8.4,88,7,86.6,7,84.9V54h29.4v1.8v2h2h23.2h2v-2V54H93 M95,52H61.6v3.8H38.4V52H5    v32.9c0,2.8,2.3,5.1,5.1,5.1h79.9c2.8,0,5.1-2.3,5.1-5.1V52L95,52z"></path></g></g></svg>