<svg xmlns="http://www.w3.org/2000/svg" viewBox="0 0 100 95.14"><title>Asset 1</title><g id="Layer_2" data-name="Layer 2"><g id="Layer_1-2" data-name="Layer 1"><polygon points="31.94 68.75 31.94 77.08 37.5 77.08 62.5 77.08 68.06 77.08 68.06 68.75 31.94 68.75"/><path d="M45.83,56.25a1.39,1.39,0,0,0-1.39-1.39,1.37,1.37,0,0,0-1.3,1h0l-2.46,7.38H33.33a1.39,1.39,0,0,0,0,2.78h9.33l3.09-9.28h0A1.29,1.29,0,0,0,45.83,56.25Z"/><path d="M36.11,54.86h-12l-3.5-9.58h0a4.11,4.11,0,0,0-5.81-2.47h0C5.26,47.57,0,58.27,0,72.92a4.17,4.17,0,0,0,4.17,4.17h12.5V91A4.17,4.17,0,1,0,25,91V72.92a4.17,4.17,0,0,0-4.17-4.17H8.51c.51-6,2.27-12.45,7-16.46l4.26,6.59h0a2.77,2.77,0,0,0,2.48,1.54H36.11a2.78,2.78,0,0,0,0-5.56Z"/><circle cx="27.78" cy="39.58" r="6.25"/><path d="M66.67,63.19H59.33l-2.46-7.38h0a1.37,1.37,0,0,0-1.3-1,1.39,1.39,0,0,0-1.39,1.39,1.31,1.31,0,0,0,.09.43h0L57.33,66h9.34a1.39,1.39,0,0,0,0-2.78Z"/><circle cx="72.22" cy="39.58" r="6.25"/><path d="M85.2,42.8h0a4.11,4.11,0,0,0-5.81,2.47h0l-3.5,9.58h-12a2.78,2.78,0,0,0,0,5.56H77.78a2.77,2.77,0,0,0,2.48-1.54h0l4.27-6.59c4.69,4,6.46,10.47,7,16.46H79.17A4.17,4.17,0,0,0,75,72.92V91a4.17,4.17,0,1,0,8.33,0V77.08h12.5A4.17,4.17,0,0,0,100,72.92C100,58.27,94.74,47.57,85.2,42.8Z"/><path d="M50,29.17A14.58,14.58,0,1,1,64.58,14.58,14.6,14.6,0,0,1,50,29.17ZM50,2.78A11.81,11.81,0,1,0,61.81,14.58,11.82,11.82,0,0,0,50,2.78Z"/><path d="M56.94,9a1.39,1.39,0,0,0-2.37-1l-3.18,3.18v-5a1.39,1.39,0,0,0-2.78,0v8.33a1.39,1.39,0,0,0,2.37,1L56.54,10A1.38,1.38,0,0,0,56.94,9Z"/></g></g></svg>