<svg xmlns="http://www.w3.org/2000/svg" viewBox="0 0 56 81"><defs><style>.cls-1{fill:none;stroke:#000;stroke-linecap:round;stroke-linejoin:round;}</style></defs><title>Asset 1</title><g id="Layer_2" data-name="Layer 2"><g id="Layer_1-2" data-name="Layer 1"><rect class="cls-1" x="0.5" y="18" width="11.25" height="5"/><rect class="cls-1" x="5.5" y="0.5" width="5" height="10"/><polygon class="cls-1" points="9.25 78 6.75 78 5.5 69.25 5.5 65.5 10.5 65.5 10.5 69.25 9.25 78"/><path class="cls-1" d="M8,78v0Z"/><path class="cls-1" d="M5.5,4.25h0Z"/><path class="cls-1" d="M4.25,60.5h0Z"/><path class="cls-1" d="M.5,13v0Z"/><rect class="cls-1" x="4.25" y="23" width="7.5" height="42.5"/><rect class="cls-1" x="4.25" y="10.5" width="7.5" height="7.5"/><polygon class="cls-1" points="30.5 65.5 26.75 80.5 23 65.5 23 8 30.5 8 30.5 65.5"/><path class="cls-1" d="M26.75,15.5v0Z"/><path class="cls-1" d="M30.5,65.5a5.3,5.3,0,0,0-7.5,0A5.3,5.3,0,0,1,30.5,65.5Z"/><path class="cls-1" d="M24.88,73h0Z"/><path class="cls-1" d="M23,8V3A2.51,2.51,0,0,1,25.5.5H28A2.51,2.51,0,0,1,30.5,3V8Z"/><path class="cls-1" d="M23,11.75h0Z"/><path class="cls-1" d="M23,15.5h0Z"/><rect class="cls-1" x="41.75" y="0.5" width="10" height="30"/><path class="cls-1" d="M43,76.75V30.5h7.5V76.75h0a3.75,3.75,0,1,1-7.5,0Z"/><polygon class="cls-1" points="50.5 57.37 43 61.13 43 53.63 50.5 49.87 50.5 57.37"/><path class="cls-1" d="M41.75,4.25h0Z"/><polygon class="cls-1" points="55.5 30.5 55.5 0.5 41.75 0.5 55.5 0.5 55.5 30.5"/></g></g></svg>