<svg xmlns="http://www.w3.org/2000/svg" viewBox="0 0 61 46.21"><title>Asset 1</title><g id="Layer_2" data-name="Layer 2"><g id="Layer_1-2" data-name="Layer 1"><path d="M23.83,0a.5.5,0,0,0-.35.86l.35.35-.35.35a.5.5,0,1,0,.71.71l.35-.35.35.35a.5.5,0,0,0,.71-.71l-.35-.35L25.6.86a.5.5,0,1,0-.71-.71L24.54.5,24.19.15A.5.5,0,0,0,23.83,0ZM34.25,1.42a1.5,1.5,0,1,0,1.5,1.5A1.51,1.51,0,0,0,34.25,1.42Zm0,1a.5.5,0,1,1-.5.5A.49.49,0,0,1,34.25,2.42Zm7.57,2a.5.5,0,0,0-.35.86l.35.35L41.48,6a.5.5,0,1,0,.69.72l0,0,.35-.35.35.35A.5.5,0,1,0,43.62,6l0,0-.35-.35.35-.35a.5.5,0,1,0-.71-.71l-.35.35-.35-.35A.5.5,0,0,0,41.83,4.42ZM25.5,7.21a1.5,1.5,0,0,0,0,3H26v9.41A13,13,0,1,0,36.81,43a3.5,3.5,0,0,0,1,1.43,2.59,2.59,0,0,0,1.72.8H42v1h1v-1H56v1h1v-1h1.5a2.51,2.51,0,0,0,2.5-2.5v-13a2.51,2.51,0,0,0-2.5-2.5H57v-1h.42a.51.51,0,1,0,0-1H51.58a.51.51,0,1,0,0,1H52v1H49v-1h.42a.51.51,0,1,0,0-1H43.58a.51.51,0,1,0,0,1H44v1H42.09A13,13,0,0,0,34,19.63V10.21h.5a1.5,1.5,0,0,0,0-3Zm0,1h9a.5.5,0,0,1,0,1h-9a.5.5,0,0,1,0-1Zm1.5,2h6v9.72a.5.5,0,0,0,.36.48,12,12,0,0,1,8.32,8.8H18.32a12,12,0,0,1,8.32-8.8.5.5,0,0,0,.36-.48Zm-4.76,2a.5.5,0,0,0-.49.51h0v.5h-.5a.5.5,0,1,0,0,1h.51v.5a.5.5,0,0,0,1,0s0,0,0,0v-.5h.5a.5.5,0,1,0,0-1h-.51v-.5a.5.5,0,0,0-.49-.51Zm16,.23a.5.5,0,0,0-.35.86l1,1a.5.5,0,0,0,.71-.71h0l-1-1A.5.5,0,0,0,38.25,12.42Zm4,0a.5.5,0,0,0-.34.15l-1,1a.5.5,0,1,0,.7.71h0l1-1a.5.5,0,0,0-.36-.86Zm-30.74,2a1.5,1.5,0,1,0,1.5,1.5A1.51,1.51,0,0,0,11.5,14.42Zm19.71,0a.5.5,0,1,0,.54.5.5.5,0,0,0-.54-.5Zm-19.71,1a.5.5,0,1,1-.5.5A.49.49,0,0,1,11.5,15.42Zm27.74,0a.5.5,0,0,0-.34.15l-1,1a.5.5,0,1,0,.7.71h0l1-1a.5.5,0,0,0-.36-.86Zm2,0a.5.5,0,0,0-.35.86l1,1a.5.5,0,0,0,.71-.71h0l-1-1A.5.5,0,0,0,41.25,15.42Zm-12,2a.5.5,0,1,0,.54.5.5.5,0,0,0-.54-.5ZM7.5,19.21A1.5,1.5,0,0,0,7,22.12v7.46L.48,41.21l-.14.25A2.5,2.5,0,0,0,2.5,45.21h14a2.5,2.5,0,0,0,2.17-3.74h0l0,0s-4-7.19-6.65-11.85V22.12a1.5,1.5,0,0,0-.5-2.91h-4Zm9.33.79a.5.5,0,0,0-.35.86l.35.35-.35.35a.5.5,0,1,0,.7.71h0l.35-.35.35.35a.5.5,0,0,0,.71-.71h0l-.35-.35.35-.35a.5.5,0,1,0-.71-.71l-.35.35-.35-.35A.5.5,0,0,0,16.83,20Zm-9.33.21h4a.5.5,0,1,1,0,1h-4a.5.5,0,0,1,0-1Zm.5,2h3v7.63l.07.12c.73,1.27,1.56,2.76,2.38,4.23A4.22,4.22,0,0,1,9.74,34a5.06,5.06,0,0,0-1.86-.58h0a5.36,5.36,0,0,0-2,.17L8,29.84V22.21Zm24.5,1a1.5,1.5,0,1,0,1.5,1.5A1.51,1.51,0,0,0,32.5,23.21Zm0,1a.5.5,0,1,1-.5.5A.49.49,0,0,1,32.5,24.21Zm-7,2a.5.5,0,1,0,.5.5A.5.5,0,0,0,25.5,26.21Zm19.5,0h3V40.42a1.5,1.5,0,0,1-3,0v-.21h.75v-1H45v-1h1.5v-1H45v-1h.75v-1H45v-1h1.5v-1H45v-1h.75v-1H45v-1h1.5v-1H45Zm8,0h3V40.42a1.5,1.5,0,0,1-3,0v-.21h.75v-1H53v-1h1.5v-1H53v-1h.75v-1H53v-1h1.5v-1H53v-1h.75v-1H53v-1h1.5v-1H53Zm-10.56,2H44V40.42a2.5,2.5,0,0,0,5,0V28.21h3V40.42a2.5,2.5,0,0,0,5,0V28.21h1.5a1.49,1.49,0,0,1,1.5,1.5v13a1.49,1.49,0,0,1-1.5,1.5h-19a1.82,1.82,0,0,1-1-.53,2.7,2.7,0,0,1-.72-1.07.5.5,0,0,0-.09-.19A13,13,0,0,0,43,31.92,12.82,12.82,0,0,0,42.44,28.21Zm-24.31,2H41.87a12,12,0,1,1-23.74,0Zm28.37,1a.5.5,0,1,0,.5.5A.5.5,0,0,0,46.5,31.21Zm8,0a.5.5,0,1,0,.5.5A.5.5,0,0,0,54.5,31.21Zm-25.29.21a.5.5,0,1,0,.54.5.5.5,0,0,0-.54-.5Zm9.54,1.5a1.5,1.5,0,1,0,1.5,1.5A1.51,1.51,0,0,0,38.75,32.92Zm-16,1a1.5,1.5,0,1,0,1.5,1.5A1.51,1.51,0,0,0,22.75,33.92Zm16,0a.5.5,0,1,1-.5.5A.49.49,0,0,1,38.75,33.92Zm-31.68.49a4.13,4.13,0,0,1,2.19.5,5.24,5.24,0,0,0,4.67.13c2,3.58,3.86,6.9,3.86,6.9h0a1.5,1.5,0,0,1-1.3,2.25H2.5A1.5,1.5,0,0,1,1.2,42l3.93-7,.13-.05a4.31,4.31,0,0,1,1.82-.49Zm24.14,0a.5.5,0,1,0,.54.5.5.5,0,0,0-.54-.5Zm-8.46.5a.5.5,0,1,1-.5.5A.49.49,0,0,1,22.75,34.93ZM47,35.21a.5.5,0,1,0,.5.5A.5.5,0,0,0,47,35.21Zm8,0a.5.5,0,1,0,.5.5A.5.5,0,0,0,55,35.21Zm-44.5,1a.5.5,0,1,0,.5.5A.5.5,0,0,0,10.5,36.21Zm15.71.21a.5.5,0,1,0,.54.5.5.5,0,0,0-.54-.5Zm10,0a.5.5,0,1,0,.54.5.5.5,0,0,0-.54-.5Zm-29.47.79a1.5,1.5,0,1,0,1.5,1.5A1.51,1.51,0,0,0,6.75,37.21Zm0,1a.5.5,0,1,1-.5.5A.49.49,0,0,1,6.75,38.21Zm4.5,0a.5.5,0,1,0,.5.5A.5.5,0,0,0,11.25,38.21Zm2.25,1a1.5,1.5,0,1,0,1.5,1.5A1.51,1.51,0,0,0,13.5,39.21Zm18,0a1.5,1.5,0,1,0,1.5,1.5A1.51,1.51,0,0,0,31.5,39.21Zm-18,1a.5.5,0,1,1-.5.5A.49.49,0,0,1,13.5,40.21Zm18,0a.5.5,0,1,1-.5.5A.49.49,0,0,1,31.5,40.21Zm15,0a.5.5,0,1,0,.5.5A.5.5,0,0,0,46.5,40.21Zm8,0a.5.5,0,1,0,.5.5A.5.5,0,0,0,54.5,40.21Zm-26.29.21a.5.5,0,1,0,.54.5.5.5,0,0,0-.54-.5ZM5.5,41.21a.5.5,0,1,0,.5.5A.5.5,0,0,0,5.5,41.21Zm4.75,1a.5.5,0,1,0,.5.5A.5.5,0,0,0,10.25,42.21Z"/></g></g></svg>